<?xml version="1.0" ?><svg id="Layer_1" style="enable-background:new 0 0 64 64;" version="1.1" viewBox="0 0 64 64" xml:space="preserve" xmlns="http://www.w3.org/2000/svg" xmlns:xlink="http://www.w3.org/1999/xlink"><style type="text/css">
	.st0{fill:#FFFFFF;}
	.st1{fill-rule:evenodd;clip-rule:evenodd;fill:#FFFFFF;}
	.st2{fill:#D2E5F0;}
	.st3{fill:#B6CFE3;}
</style><g id="XMLID_10130_"><defs><path d="M57.5,57.5c-6,6-45,6-51,0c-6-6-6-45,0-51c6-6,45-6,51,0C63.5,12.5,63.5,51.5,57.5,57.5z" id="XMLID_10131_"/></defs><use style="overflow:visible;fill:#53BA63;" xlink:href="#XMLID_10131_"/><clipPath id="XMLID_2_"><use style="overflow:visible;" xlink:href="#XMLID_10131_"/></clipPath></g><g id="XMLID_10125_"><path class="st1" d="M15.9,48.2c0.2-0.7,0.3-1.3,0.5-1.9c0.5-1.9,1.1-3.9,1.6-5.8c0.1-0.3,0-0.7-0.1-0.9   c-4.9-9.4,0.2-20.8,10.5-23.3c9.4-2.2,17.9,4.1,19.4,12.7c1.6,8.9-4.2,17.3-13,18.8c-3.5,0.6-6.8,0.1-10-1.5   c-0.3-0.1-0.7-0.2-1-0.1C19.6,47.2,16.7,48,15.9,48.2z M19.6,44.5c1.6-0.4,3.1-0.8,4.5-1.2c0.4-0.1,0.7-0.1,1.1,0.2   c2.8,1.6,5.7,2.2,8.9,1.7c7.3-1.2,12.3-8,11.2-15.3c-1.2-7.5-8.2-12.6-15.7-11.2c-9,1.7-13.8,11.7-9.3,19.7   c0.5,0.9,0.6,1.6,0.3,2.6C20.2,42,20,43.2,19.6,44.5z" id="XMLID_10127_"/><path class="st1" d="M36.2,39.6c-3.1-0.1-8.1-2.6-11.6-8.5c-1.2-2.1-1-4.5,0.7-6.2c0.6-0.6,1.4-0.4,2.1-0.3   c0.2,0,0.4,0.3,0.4,0.5c0.5,1,0.9,2.1,1.3,3.1c0.2,0.6-0.2,1.1-1,2c-0.3,0.3-0.3,0.6-0.1,0.9c1.3,2.2,3.2,3.8,5.6,4.8   c0.4,0.1,0.6,0.1,0.8-0.2c1.3-1.6,1.4-2,2.1-1.7c3.2,1.6,3.5,1.6,3.5,2C40.3,38.7,37.8,39.7,36.2,39.6z" id="XMLID_10126_"/></g></svg>